# Blender v2.72 (sub 2) OBJ File: ''
# www.blender.org
v -7.000000 10.000000 0.000000
v -7.000000 8.000000 0.000000
v -5.000000 10.000000 0.000000
v -5.000000 8.000000 0.000000
v -6.700000 9.700000 0.000000
v -6.700000 8.300000 0.000000
v -5.300000 9.700000 0.000000
v -5.300000 8.300000 0.000000
v -6.000000 9.000000 0.000000
v -6.400000 8.500000 0.000000
v -5.600000 8.500000 0.000000
v -5.600000 9.100000 0.000000
v -6.400000 9.100000 0.000000
v -6.000000 9.600000 0.000000
vt 0.150000 0.850000
vt 0.850000 0.850000
vt 1.000000 1.000000
vt 0.850000 0.150000
vt 1.000000 0.000000
vt 0.150000 0.150000
vt 0.000000 0.000000
vt 0.000000 1.000000
vt 0.750000 0.300000
vt 0.750000 0.700000
vt 0.500000 0.500000
vt 0.449999 0.300000
vt 0.449999 0.700000
vt 0.199999 0.500000
vn 0.000000 0.000000 1.000000
s off
f 7/1/1 8/2/1 4/3/1
f 8/2/1 6/4/1 2/5/1
f 6/4/1 5/6/1 1/7/1
f 5/6/1 7/1/1 3/8/1
f 10/9/1 11/10/1 9/11/1
f 13/12/1 12/13/1 14/14/1
f 3/8/1 7/1/1 4/3/1
f 4/3/1 8/2/1 2/5/1
f 2/5/1 6/4/1 1/7/1
f 1/7/1 5/6/1 3/8/1
