# Blender v2.72 (sub 2) OBJ File: ''
# www.blender.org
v 0.000000 0.000000 -1.000000
v -0.525725 -0.723607 -0.447220
v -0.850649 0.276388 -0.447220
v 0.000000 0.894426 -0.447216
v 0.850649 0.276388 -0.447220
v 0.525725 -0.723607 -0.447220
v -0.850649 -0.276388 0.447220
v -0.525725 0.723607 0.447220
v 0.525725 0.723607 0.447220
v 0.850649 -0.276388 0.447220
v 0.000000 -0.894426 0.447216
v 0.000000 0.000000 1.000000
v -0.499995 0.162456 -0.850654
v -0.309011 -0.425323 -0.850654
v -0.809012 -0.262869 -0.525738
v 0.000000 -0.850648 -0.525736
v 0.309011 -0.425323 -0.850654
v 0.000000 0.525730 -0.850652
v -0.499997 0.688189 -0.525736
v 0.499995 0.162456 -0.850654
v 0.499997 0.688189 -0.525736
v 0.809012 -0.262869 -0.525738
v -0.309013 -0.951058 0.000000
v 0.309013 -0.951058 0.000000
v -1.000000 0.000000 0.000000
v -0.809017 -0.587786 0.000000
v -0.309013 0.951058 0.000000
v -0.809017 0.587786 0.000000
v 0.809017 0.587786 0.000000
v 0.309013 0.951058 0.000000
v 0.809017 -0.587786 0.000000
v 1.000000 0.000000 0.000000
v -0.499997 -0.688189 0.525736
v -0.809012 0.262869 0.525738
v 0.000000 0.850648 0.525736
v 0.809012 0.262869 0.525738
v 0.499997 -0.688189 0.525736
v -0.499995 -0.162456 0.850654
v 0.000000 -0.525730 0.850652
v -0.309011 0.425323 0.850654
v 0.309011 0.425323 0.850654
v 0.499995 -0.162456 0.850654
v -0.499995 0.162456 -0.850654
v -0.499995 0.162456 -0.850654
v -0.499995 0.162456 -0.850654
v -0.499995 0.162456 -0.850654
v -0.499995 0.162456 -0.850654
v 0.000000 0.000000 -1.000000
v 0.000000 0.000000 -1.000000
v 0.000000 0.000000 -1.000000
v 0.000000 0.000000 -1.000000
v -0.309011 -0.425323 -0.850654
v -0.309011 -0.425323 -0.850654
v -0.309011 -0.425323 -0.850654
v -0.309011 -0.425323 -0.850654
v -0.309011 -0.425323 -0.850654
v -0.525725 -0.723607 -0.447220
v -0.525725 -0.723607 -0.447220
v -0.525725 -0.723607 -0.447220
v -0.525725 -0.723607 -0.447220
v -0.809012 -0.262869 -0.525738
v -0.809012 -0.262869 -0.525738
v -0.809012 -0.262869 -0.525738
v -0.809012 -0.262869 -0.525738
v -0.809012 -0.262869 -0.525738
v -0.850649 0.276388 -0.447220
v -0.850649 0.276388 -0.447220
v -0.850649 0.276388 -0.447220
v -0.850649 0.276388 -0.447220
v 0.000000 -0.850648 -0.525736
v 0.000000 -0.850648 -0.525736
v 0.000000 -0.850648 -0.525736
v 0.000000 -0.850648 -0.525736
v 0.000000 -0.850648 -0.525736
v 0.309011 -0.425323 -0.850654
v 0.309011 -0.425323 -0.850654
v 0.309011 -0.425323 -0.850654
v 0.309011 -0.425323 -0.850654
v 0.309011 -0.425323 -0.850654
v 0.525725 -0.723607 -0.447220
v 0.525725 -0.723607 -0.447220
v 0.525725 -0.723607 -0.447220
v 0.525725 -0.723607 -0.447220
v 0.000000 0.525730 -0.850652
v 0.000000 0.525730 -0.850652
v 0.000000 0.525730 -0.850652
v 0.000000 0.525730 -0.850652
v 0.000000 0.525730 -0.850652
v -0.499997 0.688189 -0.525736
v -0.499997 0.688189 -0.525736
v -0.499997 0.688189 -0.525736
v -0.499997 0.688189 -0.525736
v -0.499997 0.688189 -0.525736
v 0.000000 0.894426 -0.447216
v 0.000000 0.894426 -0.447216
v 0.000000 0.894426 -0.447216
v 0.000000 0.894426 -0.447216
v 0.499995 0.162456 -0.850654
v 0.499995 0.162456 -0.850654
v 0.499995 0.162456 -0.850654
v 0.499995 0.162456 -0.850654
v 0.499995 0.162456 -0.850654
v 0.499997 0.688189 -0.525736
v 0.499997 0.688189 -0.525736
v 0.499997 0.688189 -0.525736
v 0.499997 0.688189 -0.525736
v 0.499997 0.688189 -0.525736
v 0.850649 0.276388 -0.447220
v 0.850649 0.276388 -0.447220
v 0.850649 0.276388 -0.447220
v 0.850649 0.276388 -0.447220
v 0.809012 -0.262869 -0.525738
v 0.809012 -0.262869 -0.525738
v 0.809012 -0.262869 -0.525738
v 0.809012 -0.262869 -0.525738
v 0.809012 -0.262869 -0.525738
v -0.309013 -0.951058 0.000000
v -0.309013 -0.951058 0.000000
v -0.309013 -0.951058 0.000000
v -0.309013 -0.951058 0.000000
v -0.309013 -0.951058 0.000000
v 0.309013 -0.951058 0.000000
v 0.309013 -0.951058 0.000000
v 0.309013 -0.951058 0.000000
v 0.309013 -0.951058 0.000000
v 0.309013 -0.951058 0.000000
v 0.000000 -0.894426 0.447216
v 0.000000 -0.894426 0.447216
v 0.000000 -0.894426 0.447216
v 0.000000 -0.894426 0.447216
v -1.000000 0.000000 0.000000
v -1.000000 0.000000 0.000000
v -1.000000 0.000000 0.000000
v -1.000000 0.000000 0.000000
v -1.000000 0.000000 0.000000
v -0.809017 -0.587786 0.000000
v -0.809017 -0.587786 0.000000
v -0.809017 -0.587786 0.000000
v -0.809017 -0.587786 0.000000
v -0.809017 -0.587786 0.000000
v -0.850649 -0.276388 0.447220
v -0.850649 -0.276388 0.447220
v -0.850649 -0.276388 0.447220
v -0.850649 -0.276388 0.447220
v -0.309013 0.951058 0.000000
v -0.309013 0.951058 0.000000
v -0.309013 0.951058 0.000000
v -0.309013 0.951058 0.000000
v -0.309013 0.951058 0.000000
v -0.809017 0.587786 0.000000
v -0.809017 0.587786 0.000000
v -0.809017 0.587786 0.000000
v -0.809017 0.587786 0.000000
v -0.809017 0.587786 0.000000
v -0.525725 0.723607 0.447220
v -0.525725 0.723607 0.447220
v -0.525725 0.723607 0.447220
v -0.525725 0.723607 0.447220
v 0.809017 0.587786 0.000000
v 0.809017 0.587786 0.000000
v 0.809017 0.587786 0.000000
v 0.809017 0.587786 0.000000
v 0.809017 0.587786 0.000000
v 0.309013 0.951058 0.000000
v 0.309013 0.951058 0.000000
v 0.309013 0.951058 0.000000
v 0.309013 0.951058 0.000000
v 0.309013 0.951058 0.000000
v 0.525725 0.723607 0.447220
v 0.525725 0.723607 0.447220
v 0.525725 0.723607 0.447220
v 0.525725 0.723607 0.447220
v 0.809017 -0.587786 0.000000
v 0.809017 -0.587786 0.000000
v 0.809017 -0.587786 0.000000
v 0.809017 -0.587786 0.000000
v 0.809017 -0.587786 0.000000
v 1.000000 0.000000 0.000000
v 1.000000 0.000000 0.000000
v 1.000000 0.000000 0.000000
v 1.000000 0.000000 0.000000
v 1.000000 0.000000 0.000000
v 0.850649 -0.276388 0.447220
v 0.850649 -0.276388 0.447220
v 0.850649 -0.276388 0.447220
v 0.850649 -0.276388 0.447220
v -0.499997 -0.688189 0.525736
v -0.499997 -0.688189 0.525736
v -0.499997 -0.688189 0.525736
v -0.499997 -0.688189 0.525736
v -0.499997 -0.688189 0.525736
v -0.809012 0.262869 0.525738
v -0.809012 0.262869 0.525738
v -0.809012 0.262869 0.525738
v -0.809012 0.262869 0.525738
v -0.809012 0.262869 0.525738
v 0.000000 0.850648 0.525736
v 0.000000 0.850648 0.525736
v 0.000000 0.850648 0.525736
v 0.000000 0.850648 0.525736
v 0.000000 0.850648 0.525736
v 0.809012 0.262869 0.525738
v 0.809012 0.262869 0.525738
v 0.809012 0.262869 0.525738
v 0.809012 0.262869 0.525738
v 0.809012 0.262869 0.525738
v 0.499997 -0.688189 0.525736
v 0.499997 -0.688189 0.525736
v 0.499997 -0.688189 0.525736
v 0.499997 -0.688189 0.525736
v 0.499997 -0.688189 0.525736
v -0.499995 -0.162456 0.850654
v -0.499995 -0.162456 0.850654
v -0.499995 -0.162456 0.850654
v -0.499995 -0.162456 0.850654
v -0.499995 -0.162456 0.850654
v 0.000000 -0.525730 0.850652
v 0.000000 -0.525730 0.850652
v 0.000000 -0.525730 0.850652
v 0.000000 -0.525730 0.850652
v 0.000000 -0.525730 0.850652
v 0.000000 0.000000 1.000000
v 0.000000 0.000000 1.000000
v 0.000000 0.000000 1.000000
v 0.000000 0.000000 1.000000
v -0.309011 0.425323 0.850654
v -0.309011 0.425323 0.850654
v -0.309011 0.425323 0.850654
v -0.309011 0.425323 0.850654
v -0.309011 0.425323 0.850654
v 0.309011 0.425323 0.850654
v 0.309011 0.425323 0.850654
v 0.309011 0.425323 0.850654
v 0.309011 0.425323 0.850654
v 0.309011 0.425323 0.850654
v 0.499995 -0.162456 0.850654
v 0.499995 -0.162456 0.850654
v 0.499995 -0.162456 0.850654
v 0.499995 -0.162456 0.850654
v 0.499995 -0.162456 0.850654
vt 0.377882 0.000000
vt 0.650001 0.176206
vt 0.450001 0.176206
vt 0.650001 0.352414
vt 0.750000 0.323790
vt 0.250000 0.176208
vt 0.049999 0.176206
vt 1.049999 0.176206
vt 0.849999 0.176206
vt 0.700001 0.500000
vt 0.450001 0.352414
vt 0.550001 0.323789
vt 0.500000 0.500000
vt 0.250000 0.352416
vt 0.350000 0.323790
vt 0.299999 0.500000
vt 0.049999 0.352414
vt 0.150000 0.323790
vt 0.100000 0.500000
vt 0.849999 0.352414
vt 0.949999 0.323789
vt 0.900000 0.500000
vt 0.600000 0.500000
vt 0.400000 0.500000
vt 0.200001 0.500000
vt 0.000000 0.500000
vt 0.799999 0.500000
vt 0.549999 0.647586
vt 0.650000 0.676210
vt 0.549999 0.823794
vt 0.349999 0.647586
vt 0.449999 0.676211
vt 0.349999 0.823794
vt 0.150001 0.647586
vt 0.250000 0.676210
vt 0.150001 0.823794
vt 0.950001 0.647586
vt 1.050001 0.676211
vt 0.950001 0.823794
vt 0.750000 0.647584
vt 0.850000 0.676210
vt 0.750000 0.823792
vt 0.877882 1.000000
vt 1.150001 0.823794
vt 0.050001 0.676211
vt 1.349999 0.823794
vt 1.000000 0.500000
vt 1.049999 0.352414
vn -0.315100 -0.102400 -0.943500
vn -0.268000 -0.700200 -0.661700
vn -0.194700 0.268000 -0.943500
vn 0.194700 0.268000 -0.943500
vn 0.315100 -0.102400 -0.943500
vn -0.268000 -0.905000 -0.330400
vn -0.943500 -0.024700 -0.330400
vn -0.315100 0.889700 -0.330400
vn 0.748800 0.574600 -0.330400
vn 0.777900 -0.534600 -0.330400
vn -0.583100 -0.802600 -0.125600
vn -0.943500 0.306600 -0.125600
vn 0.000000 0.992100 -0.125600
vn 0.943500 0.306600 -0.125600
vn 0.583100 -0.802600 -0.125600
vn -0.628400 -0.408900 0.661700
vn -0.583100 0.471300 0.661700
vn 0.268000 0.700200 0.661700
vn 0.748800 -0.038500 0.661700
vn 0.194700 -0.724000 0.661700
vn 0.194700 -0.268000 0.943500
vn 0.356800 -0.491100 0.794700
vn 0.628400 -0.408900 0.661700
vn 0.315100 0.102400 0.943500
vn 0.577300 0.187600 0.794700
vn 0.583100 0.471300 0.661700
vn 0.000000 0.331300 0.943500
vn 0.000000 0.607100 0.794700
vn -0.268000 0.700200 0.661700
vn -0.315100 0.102400 0.943500
vn -0.577300 0.187600 0.794700
vn -0.748800 -0.038500 0.661700
vn -0.194700 -0.268000 0.943500
vn -0.356800 -0.491100 0.794700
vn -0.194700 -0.724000 0.661700
vn 0.315100 -0.889700 0.330400
vn 0.577300 -0.794700 0.187600
vn 0.748800 -0.574600 0.330400
vn 0.943500 0.024700 0.330400
vn 0.934200 0.303500 0.187600
vn 0.777900 0.534600 0.330400
vn 0.268000 0.905000 0.330400
vn 0.000000 0.982200 0.187600
vn -0.268000 0.905000 0.330400
vn -0.777900 0.534600 0.330400
vn -0.934200 0.303500 0.187600
vn -0.943500 0.024700 0.330400
vn -0.748800 -0.574600 0.330400
vn -0.577300 -0.794700 0.187600
vn -0.315100 -0.889700 0.330400
vn 0.943500 -0.306600 0.125600
vn 0.934200 -0.303500 -0.187600
vn 0.943500 -0.024700 -0.330400
vn 0.583100 0.802600 0.125600
vn 0.577300 0.794700 -0.187600
vn 0.315100 0.889700 -0.330400
vn -0.583100 0.802600 0.125600
vn -0.577300 0.794700 -0.187600
vn -0.748800 0.574600 -0.330400
vn -0.943500 -0.306600 0.125600
vn -0.934200 -0.303500 -0.187600
vn -0.777900 -0.534600 -0.330400
vn 0.000000 -0.992100 0.125600
vn 0.000000 -0.982200 -0.187600
vn 0.268000 -0.905000 -0.330400
vn 0.583100 -0.471300 -0.661700
vn 0.577300 -0.187600 -0.794700
vn 0.748800 0.038500 -0.661700
vn 0.628400 0.408900 -0.661700
vn 0.356800 0.491100 -0.794700
vn 0.194700 0.724000 -0.661700
vn -0.194700 0.724000 -0.661700
vn -0.356800 0.491100 -0.794700
vn -0.628400 0.408900 -0.661700
vn 0.268000 -0.700200 -0.661700
vn 0.000000 -0.607100 -0.794700
vn 0.000000 -0.331300 -0.943500
vn -0.748800 0.038500 -0.661700
vn -0.577300 -0.187600 -0.794700
vn -0.583100 -0.471300 -0.661700
s 1
f 1/1/1 52/2/1 13/3/1
f 2/4/2 14/2/2 16/5/2
f 48/1/3 44/3/3 18/6/3
f 49/1/4 85/6/4 20/7/4
f 50/1/5 99/8/5 75/9/5
f 57/4/6 71/5/6 23/10/6
f 3/11/7 15/12/7 25/13/7
f 4/14/8 19/15/8 27/16/8
f 5/17/9 21/18/9 29/19/9
f 80/20/10 22/21/10 31/22/10
f 59/4/11 118/10/11 136/23/11
f 68/11/12 132/13/12 150/24/12
f 96/14/13 146/16/13 164/25/13
f 110/17/14 160/19/14 178/26/14
f 82/20/15 174/22/15 122/27/15
f 141/28/16 33/29/16 38/30/16
f 155/31/17 34/32/17 40/33/17
f 169/34/18 35/35/18 41/36/18
f 183/37/19 36/38/19 42/39/19
f 127/40/20 37/41/20 217/42/20
f 39/42/21 236/39/21 12/43/21
f 221/42/22 208/41/22 237/39/22
f 207/41/23 185/37/23 239/39/23
f 238/39/24 231/44/24 224/43/24
f 240/39/25 203/38/25 232/44/25
f 202/45/26 171/34/26 234/36/26
f 233/44/27 226/46/27 223/43/27
f 235/36/28 198/35/28 227/33/28
f 197/35/29 157/31/29 229/33/29
f 228/46/30 212/30/30 222/43/30
f 230/33/31 193/32/31 213/30/31
f 192/32/32 143/28/32 215/30/32
f 214/30/33 218/42/33 225/43/33
f 216/30/34 188/29/34 219/42/34
f 187/29/35 129/40/35 220/42/35
f 24/27/36 209/41/36 11/40/36
f 126/27/37 175/22/37 210/41/37
f 173/22/38 184/37/38 211/41/38
f 32/47/39 204/38/39 10/37/39
f 182/26/40 161/19/40 205/45/40
f 159/19/41 170/34/41 206/45/41
f 30/25/42 199/35/42 9/34/42
f 168/25/43 147/16/43 200/35/43
f 145/16/44 156/31/44 201/35/44
f 28/24/45 194/32/45 8/31/45
f 154/24/46 133/13/46 195/32/46
f 131/13/47 142/28/47 196/32/47
f 26/23/48 189/29/48 7/28/48
f 140/23/49 119/10/49 190/29/49
f 117/10/50 128/40/50 191/29/50
f 176/22/51 179/47/51 186/37/51
f 177/22/52 113/21/52 180/47/52
f 112/21/53 109/48/53 181/47/53
f 162/19/54 165/25/54 172/34/54
f 163/19/55 104/18/55 166/25/55
f 103/18/56 95/14/56 167/25/56
f 148/16/57 151/24/57 158/31/57
f 149/16/58 90/15/58 152/24/58
f 89/15/59 67/11/59 153/24/59
f 134/13/60 137/23/60 144/28/60
f 135/13/61 62/12/61 138/23/61
f 61/12/62 58/4/62 139/23/62
f 120/10/63 123/27/63 130/40/63
f 121/10/64 72/5/64 124/27/64
f 70/5/65 81/20/65 125/27/65
f 17/9/66 114/21/66 6/20/66
f 79/9/67 100/8/67 115/21/67
f 98/8/68 108/48/68 116/21/68
f 101/7/69 105/18/69 111/17/69
f 102/7/70 86/6/70 106/18/70
f 84/6/71 94/14/71 107/18/71
f 87/6/72 91/15/72 97/14/72
f 88/6/73 45/3/73 92/15/73
f 43/3/74 66/11/74 93/15/74
f 73/5/75 76/9/75 83/20/75
f 74/5/76 53/2/76 77/9/76
f 56/2/77 51/1/77 78/9/77
f 46/3/78 63/12/78 69/11/78
f 47/3/79 54/2/79 64/12/79
f 55/2/80 60/4/80 65/12/80
